<svg xmlns="http://www.w3.org/2000/svg" viewBox="0 0 1200 520" role="img" aria-labelledby="title desc">
  <title id="title">Neon notebook landscape</title>
  <desc id="desc">A dark vaporwave-inspired coastline with columns, notebook pages, cassette texture, and neon color slips.</desc>
  <defs><linearGradient id="bg" x1="0" y1="0" x2="1" y2="1"><stop offset="0" stop-color="#060609"/><stop offset="0.5" stop-color="#151417"/><stop offset="1" stop-color="#06060a"/></linearGradient><radialGradient id="moon" cx="50%" cy="50%" r="50%"><stop offset="0" stop-color="#fff" stop-opacity="0.78"/><stop offset="0.42" stop-color="#f7d46a" stop-opacity="0.28"/><stop offset="1" stop-color="#ff4fd8" stop-opacity="0"/></radialGradient><filter id="grain"><feTurbulence type="fractalNoise" baseFrequency="0.88" numOctaves="3"/><feColorMatrix type="saturate" values="0"/><feComponentTransfer><feFuncA type="table" tableValues="0 0.16"/></feComponentTransfer></filter></defs>
  <rect width="1200" height="520" fill="url(#bg)"/><circle cx="886" cy="112" r="104" fill="url(#moon)"/>
  <g style="mix-blend-mode:screen" opacity="0.82"><path d="M34 486 430 314l102 54L104 520Z" fill="#ff4fd8" opacity="0.18"/><path d="M650 0h176L516 520H376Z" fill="#2be7ff" opacity="0.12"/><rect x="792" y="276" width="360" height="116" fill="#ffc857" opacity="0.11" transform="rotate(18 972 334)"/></g>
  <path d="M0 342c128-56 240-58 366-28 135 33 234 20 356-30 172-70 316-52 478 22v214H0Z" fill="#090a0d" opacity="0.84"/>
  <g transform="translate(132 80) rotate(-5 220 150)"><rect width="430" height="292" rx="8" fill="#f0e8d8" fill-opacity="0.09" stroke="#fff" stroke-opacity="0.2"/><path d="M42 76h318M42 118h342M42 160h236M42 202h310M42 244h210" stroke="#fff" stroke-opacity="0.19" stroke-width="3"/><path d="M42 118h128" stroke="#ff4fd8" stroke-opacity="0.58" stroke-width="3"/><path d="M42 202h106" stroke="#2be7ff" stroke-opacity="0.52" stroke-width="3"/><rect x="36" y="34" width="110" height="14" fill="#ffc857" opacity="0.32"/></g>
  <g transform="translate(760 168)" opacity="0.86"><path d="M30 232h292" stroke="#fff" stroke-opacity="0.16" stroke-width="10"/><rect x="60" y="50" width="34" height="182" fill="#f8f1e8" fill-opacity="0.16" stroke="#fff" stroke-opacity="0.2"/><rect x="144" y="22" width="34" height="210" fill="#f8f1e8" fill-opacity="0.12" stroke="#fff" stroke-opacity="0.18"/><rect x="228" y="78" width="34" height="154" fill="#f8f1e8" fill-opacity="0.14" stroke="#fff" stroke-opacity="0.2"/><path d="M42 50h236M30 22h164M210 78h78" stroke="#ffc857" stroke-opacity="0.3" stroke-width="12"/></g>
  <g fill="#fff" opacity="0.48"><circle cx="82" cy="88" r="1.5"/><circle cx="218" cy="46" r="1.8"/><circle cx="638" cy="86" r="1.6"/><circle cx="1002" cy="84" r="2"/><circle cx="930" cy="426" r="1.5"/><circle cx="478" cy="438" r="2"/></g>
  <path d="M0 430c211-58 383-63 576-42 251 28 389-8 624-84" fill="none" stroke="#2be7ff" stroke-opacity="0.13" stroke-width="2"/><rect width="1200" height="520" filter="url(#grain)"/><rect x="24" y="24" width="1152" height="472" rx="14" fill="none" stroke="#fff" stroke-opacity="0.11"/>
</svg>